<svg width="800" height="600" viewBox="0 0 800 600" fill="none" xmlns="http://www.w3.org/2000/svg">
<path d="M373.939 160H262.061C255.952 160 251 164.878 251 170.896V281.104C251 287.122 255.952 292 262.061 292H373.939C380.048 292 385 287.122 385 281.104V170.896C385 164.878 380.048 160 373.939 160ZM362.878 270.208H273.122V181.792H362.878V270.208Z" fill="#35637C"/>
<path d="M482 292C518.969 292 549 262.409 549 226.018C549 189.626 518.969 160 482 160C445.031 160 415 189.591 415 226.018C415 262.445 445.067 292 482 292ZM482 181.792C506.755 181.792 526.883 201.626 526.883 226.018C526.883 250.409 506.755 270.208 482 270.208C457.245 270.208 437.117 250.374 437.117 225.982C437.117 201.59 457.282 181.792 482 181.792Z" fill="#35637C"/>
<path d="M327.596 327.123C323.656 320.292 312.38 320.292 308.44 327.123L252.491 423.5C250.503 426.915 250.503 431.085 252.491 434.5C254.479 437.915 258.129 440 262.069 440H373.931C377.871 440 381.521 437.915 383.509 434.5C385.497 431.085 385.497 426.915 383.509 423.5L327.596 327.123ZM281.225 418L318.018 354.623L354.812 418H281.225Z" fill="#35637C"/>
<path d="M547.785 338.694C546.798 337.41 545.245 336.696 543.552 336.696H444.492L442.799 326.566C442.376 323.855 439.977 322 437.296 322H420.503C417.399 322 415 324.568 415 327.565C415 330.561 417.54 333.129 420.503 333.129H432.498L447.032 416.6C447.455 419.311 449.854 421.166 452.535 421.166H459.168C456.063 422.878 453.947 426.16 453.947 430.012C453.947 435.577 458.321 440 463.824 440C469.328 440 473.702 435.577 473.702 430.012C473.702 426.16 471.585 422.878 468.481 421.166H512.225C509.121 422.878 507.004 426.16 507.004 430.012C507.004 435.577 511.379 440 516.882 440C522.385 440 526.76 435.577 526.76 430.012C526.76 426.16 524.643 422.878 521.539 421.166H527.324C530.429 421.166 532.828 418.597 532.828 415.601C532.828 412.462 530.288 410.036 527.324 410.036H457.051L455.358 400.476H534.38C537.061 400.476 539.319 398.479 539.883 395.911L548.914 343.403C549.196 341.69 548.773 339.978 547.785 338.694Z" fill="#35637C"/>
</svg>
