<svg width="800" height="600" viewBox="0 0 800 600" fill="none" xmlns="http://www.w3.org/2000/svg">
<path d="M623.301 309.493L631.253 308.759H633.401C634.446 308.759 635.297 309.105 635.955 309.799C636.652 310.493 637 311.391 637 312.492V319.042C637 319.94 636.652 320.756 635.955 321.49C635.297 322.184 634.446 322.613 633.401 322.776C629.454 323.592 624.307 324 617.96 324C601.32 324 593 314.818 593 296.455V238.795C593 237.693 593.329 236.796 593.987 236.102C594.683 235.367 595.535 235 596.541 235H609.544C610.55 235 611.382 235.367 612.04 236.102C612.736 236.796 613.084 237.693 613.084 238.795V259.239H629.28C630.286 259.239 631.118 259.586 631.776 260.28C632.472 260.974 632.821 261.871 632.821 262.973V270.257C632.821 271.359 632.472 272.257 631.776 272.95C631.118 273.644 630.286 273.991 629.28 273.991H613.084V296.455C613.084 300.618 614.013 303.841 615.871 306.127C617.728 308.371 620.205 309.493 623.301 309.493Z" fill="#35637C"/>
<path d="M574.301 309.493L582.253 308.759H584.401C585.446 308.759 586.297 309.105 586.955 309.799C587.652 310.493 588 311.391 588 312.492V319.042C588 319.94 587.652 320.756 586.955 321.49C586.297 322.184 585.446 322.613 584.401 322.776C580.454 323.592 575.307 324 568.96 324C552.32 324 544 314.818 544 296.455V238.795C544 237.693 544.329 236.796 544.987 236.102C545.683 235.367 546.535 235 547.541 235H560.544C561.55 235 562.382 235.367 563.04 236.102C563.736 236.796 564.084 237.693 564.084 238.795V259.239H580.28C581.286 259.239 582.118 259.586 582.776 260.28C583.472 260.974 583.821 261.871 583.821 262.973V270.257C583.821 271.359 583.472 272.257 582.776 272.95C582.118 273.644 581.286 273.991 580.28 273.991H564.084V296.455C564.084 300.618 565.013 303.841 566.871 306.127C568.728 308.371 571.205 309.493 574.301 309.493Z" fill="#35637C"/>
<path d="M479.966 315.646C473.989 310.077 471 302.066 471 291.614C471 281.124 474.008 273.076 480.024 267.468C486.04 261.823 494.385 259 505.058 259C515.732 259 524.057 261.746 530.034 267.239C536.011 272.694 539 280.533 539 290.756V294.017C539 295.047 538.651 295.906 537.952 296.592C537.292 297.241 536.438 297.565 535.39 297.565H491.551C491.939 302.257 493.298 305.671 495.627 307.807C497.994 309.943 501.759 311.011 506.921 311.011C512.083 311.011 515.615 309.867 517.517 307.578C519.419 305.289 521.767 304.126 524.562 304.088H533.236C534.284 304.088 535.138 304.431 535.798 305.118C536.497 305.766 536.846 306.605 536.846 307.635C536.846 318.583 526.231 324.038 505 324C494.288 324 485.943 321.215 479.966 315.646ZM491.435 285.492H518.507C518.119 276.49 513.616 271.989 505 271.989C496.422 271.989 491.901 276.49 491.435 285.492Z" fill="#35637C"/>
<path d="M466 321.392C466 323.131 464.996 324 462.988 324H452.042C448.335 324 445.381 322.143 443.18 318.428L435.824 306.158C432.658 300.903 428.063 298.275 422.04 298.275V320.384C422.04 321.451 421.692 322.321 420.997 322.992C420.341 323.664 419.511 324 418.507 324H405.533C404.49 324 403.641 323.664 402.985 322.992C402.328 322.321 402 321.451 402 320.384V242.675C402 241.608 402.328 240.739 402.985 240.067C403.68 239.356 404.529 239 405.533 239H418.507C419.549 239 420.399 239.356 421.055 240.067C421.712 240.739 422.04 241.608 422.04 242.675V284.76C428.758 284.76 433.353 282.093 435.824 276.758L441.385 264.666C442.157 262.967 443.296 261.603 444.802 260.576C446.308 259.549 447.929 259.035 449.667 259.035H460.614C462.544 259.035 463.51 259.805 463.51 261.347C463.51 262.216 463.201 263.322 462.583 264.666L455.111 280.789C453.837 283.476 452.1 285.788 449.899 287.724C447.698 289.66 445.323 290.905 442.775 291.458C447.524 292.92 451.636 296.477 455.111 302.128L464.957 318.428C465.614 319.574 465.961 320.562 466 321.392Z" fill="#35637C"/>
<path d="M391.484 274.959L382.446 274.609C377.164 274.609 372.117 277.483 367.305 283.229V320.447C367.305 321.496 366.953 322.35 366.249 323.01C365.584 323.67 364.743 324 363.725 324H350.58C349.523 324 348.663 323.67 347.998 323.01C347.333 322.35 347 321.496 347 320.447V263.776C347 262.728 347.333 261.873 347.998 261.213C348.702 260.514 349.563 260.165 350.58 260.165H363.725C364.782 260.165 365.642 260.514 366.308 261.213C366.973 261.873 367.305 262.728 367.305 263.776V267.445C371.296 264.572 375.13 262.456 378.808 261.097C382.524 259.699 387.376 259 393.362 259C394.418 259 395.279 259.349 395.944 260.048C396.648 260.708 397 261.543 397 262.553V271.406C397 272.454 396.648 273.309 395.944 273.969C395.279 274.629 394.418 274.959 393.362 274.959H391.484Z" fill="#35637C"/>
<path d="M281.798 319.654C276.599 316.091 274 311.056 274 304.549C274 298.042 276.599 293.046 281.798 289.56C287.037 286.074 293.772 284.331 302.003 284.331H321.559C321.559 279.799 320.594 276.642 318.664 274.861C316.734 273.079 313.347 272.188 308.502 272.188C303.697 272.188 300.31 273.37 298.341 275.732C296.411 278.056 294.028 279.218 291.192 279.218H282.389C281.326 279.218 280.44 278.889 279.731 278.23C279.061 277.533 278.726 276.681 278.726 275.674C278.726 264.558 289.459 259 310.924 259C320.298 259 327.821 261.072 333.493 265.217C339.164 269.322 342 275.694 342 284.331V320.294C342 321.339 341.665 322.191 340.996 322.85C340.326 323.508 339.46 323.838 338.396 323.838H326.994C325.93 323.838 325.064 323.508 324.394 322.85C323.725 322.153 323.39 321.301 323.39 320.294V318.492C317.167 322.869 309.979 325.038 301.826 324.999C293.713 324.999 287.037 323.218 281.798 319.654ZM303.421 297.519C300.664 297.519 298.478 298.178 296.864 299.494C295.288 300.811 294.5 302.516 294.5 304.607C294.5 306.699 295.328 308.422 296.982 309.778C298.636 311.133 300.979 311.811 304.012 311.811C310.078 311.811 315.926 310.068 321.559 306.582V297.519H303.421Z" fill="#35637C"/>
<path d="M163 320.447V263.776C163 262.728 163.331 261.874 163.994 261.214C164.696 260.515 165.554 260.165 166.568 260.165H179.672C180.725 260.165 181.583 260.515 182.246 261.214C182.909 261.874 183.241 262.728 183.241 263.776V267.446C186.049 264.728 188.798 262.65 191.489 261.214C194.219 259.738 197.495 259 201.317 259C210.404 259 217.287 262.728 221.967 270.183C229.221 262.689 236.65 258.961 244.255 259C251.899 259 257.924 261.291 262.331 265.873C266.777 270.416 269 277.463 269 287.015V320.447C269 321.496 268.669 322.35 268.006 323.01C267.343 323.67 266.485 324 265.432 324H252.386C251.333 324 250.456 323.67 249.754 323.01C249.091 322.311 248.759 321.457 248.759 320.447V287.015C248.759 277.696 245.366 273.056 238.581 273.095C234.447 273.095 230.176 276.066 225.769 282.006C226.003 283.676 226.12 285.346 226.12 287.015V320.447C226.12 321.496 225.769 322.35 225.067 323.01C224.404 323.67 223.566 324 222.552 324H209.507C208.454 324 207.576 323.67 206.874 323.01C206.211 322.311 205.88 321.457 205.88 320.447V287.015C205.88 277.696 202.487 273.056 195.701 273.095C191.372 273.095 187.219 275.871 183.241 281.424V320.447C183.241 321.496 182.89 322.35 182.188 323.01C181.525 323.67 180.686 324 179.672 324H166.568C165.515 324 164.657 323.67 163.994 323.01C163.331 322.35 163 321.496 163 320.447Z" fill="#35637C"/>
<path d="M505.142 357.999C506.935 357.999 507.832 358.921 507.832 360.767V362.049C507.832 362.904 507.6 363.575 507.135 364.064C506.683 364.552 506.019 364.796 505.142 364.796H502.69C501.814 364.796 501.143 364.552 500.678 364.064C500.226 363.575 500 362.904 500 362.049V360.767C500 359.871 500.233 359.186 500.698 358.711C501.163 358.236 501.827 357.999 502.69 357.999H505.142Z" fill="#F69268"/>
<path d="M513.811 362.069C511.738 360.115 510.702 357.239 510.702 353.44C510.702 349.627 511.738 346.75 513.811 344.81C515.883 342.856 518.859 341.879 522.739 341.879C526.632 341.879 529.614 342.856 531.687 344.81C533.759 346.75 534.796 349.627 534.796 353.44C534.796 357.239 533.759 360.115 531.687 362.069C529.614 364.023 526.632 365 522.739 365C518.859 365 515.883 364.023 513.811 362.069ZM518.853 348.148C518.029 349.247 517.617 351.004 517.617 353.419C517.617 355.834 518.029 357.598 518.853 358.711C519.676 359.824 520.972 360.38 522.739 360.38C524.519 360.38 525.821 359.824 526.645 358.711C527.482 357.598 527.9 355.834 527.9 353.419C527.9 351.004 527.482 349.247 526.645 348.148C525.821 347.049 524.519 346.499 522.739 346.499C520.972 346.499 519.676 347.049 518.853 348.148Z" fill="#F69268"/>
<path d="M538.483 363.351V343.548C538.483 343.182 538.595 342.883 538.821 342.653C539.06 342.408 539.353 342.286 539.698 342.286H544.162C544.508 342.286 544.793 342.408 545.019 342.653C545.258 342.883 545.378 343.182 545.378 343.548V344.83C547.663 342.863 550.094 341.879 552.672 341.879C555.263 341.879 557.368 342.687 558.989 344.301C560.61 345.902 561.421 348.358 561.421 351.669V363.351C561.421 363.704 561.301 364.003 561.062 364.247C560.836 364.478 560.544 364.593 560.185 364.593H555.741C555.395 364.593 555.103 364.478 554.864 364.247C554.638 364.003 554.525 363.704 554.525 363.351V351.669C554.525 348.426 553.256 346.805 550.719 346.805C549.058 346.805 547.278 347.775 545.378 349.715V363.351C545.378 363.704 545.258 364.003 545.019 364.247C544.793 364.478 544.508 364.593 544.162 364.593H539.698C539.353 364.593 539.06 364.478 538.821 364.247C538.595 364.003 538.483 363.704 538.483 363.351Z" fill="#F69268"/>
<path d="M566.343 363.351V336.669C566.343 336.303 566.456 336.004 566.682 335.773C566.921 335.529 567.213 335.407 567.559 335.407H572.023C572.368 335.407 572.654 335.529 572.88 335.773C573.119 336.004 573.238 336.303 573.238 336.669V363.351C573.238 363.704 573.119 364.003 572.88 364.247C572.654 364.478 572.368 364.593 572.023 364.593H567.559C567.213 364.593 566.921 364.478 566.682 364.247C566.456 364.003 566.343 363.704 566.343 363.351Z" fill="#F69268"/>
<path d="M578.141 338.033V337.341C578.141 336.621 578.34 336.052 578.739 335.631C579.151 335.21 579.715 335 580.433 335H582.904C583.608 335 584.166 335.21 584.578 335.631C584.99 336.038 585.196 336.608 585.196 337.341V338.033C585.196 338.752 584.99 339.322 584.578 339.742C584.179 340.163 583.621 340.373 582.904 340.373H580.433C579.729 340.373 579.171 340.163 578.759 339.742C578.347 339.322 578.141 338.752 578.141 338.033ZM578.221 363.351V344.037C578.221 343.67 578.334 343.372 578.559 343.141C578.799 342.91 579.091 342.795 579.436 342.795H583.9C584.259 342.795 584.551 342.917 584.777 343.161C585.003 343.392 585.116 343.684 585.116 344.037V363.351C585.116 363.718 584.996 364.016 584.757 364.247C584.531 364.478 584.246 364.593 583.9 364.593H579.436C579.078 364.593 578.785 364.478 578.559 364.247C578.334 364.016 578.221 363.718 578.221 363.351Z" fill="#F69268"/>
<path d="M590.098 363.351V343.548C590.098 343.182 590.211 342.883 590.437 342.653C590.676 342.408 590.968 342.286 591.314 342.286H595.778C596.123 342.286 596.409 342.408 596.635 342.653C596.874 342.883 596.994 343.182 596.994 343.548V344.83C599.279 342.863 601.71 341.879 604.288 341.879C606.878 341.879 608.984 342.687 610.605 344.301C612.226 345.902 613.036 348.358 613.036 351.669V363.351C613.036 363.704 612.917 364.003 612.678 364.247C612.452 364.478 612.159 364.593 611.801 364.593H607.357C607.011 364.593 606.719 364.478 606.48 364.247C606.254 364.003 606.141 363.704 606.141 363.351V351.669C606.141 348.426 604.872 346.805 602.335 346.805C600.674 346.805 598.893 347.775 596.994 349.715V363.351C596.994 363.704 596.874 364.003 596.635 364.247C596.409 364.478 596.123 364.593 595.778 364.593H591.314C590.968 364.593 590.676 364.478 590.437 364.247C590.211 364.003 590.098 363.704 590.098 363.351Z" fill="#F69268"/>
<path d="M619.792 362.028C617.746 360.047 616.723 357.198 616.723 353.48C616.723 349.749 617.753 346.886 619.812 344.891C621.871 342.883 624.728 341.879 628.381 341.879C632.035 341.879 634.885 342.856 636.931 344.81C638.977 346.75 640 349.539 640 353.175V354.335C640 354.701 639.88 355.007 639.641 355.251C639.415 355.482 639.123 355.597 638.764 355.597H623.758C623.891 357.266 624.356 358.48 625.153 359.24C625.963 360 627.252 360.38 629.019 360.38C630.786 360.38 631.995 359.973 632.646 359.159C633.297 358.345 634.101 357.931 635.058 357.917H638.027C638.386 357.917 638.678 358.039 638.904 358.284C639.143 358.514 639.263 358.813 639.263 359.179C639.263 363.073 635.629 365.013 628.362 365C624.695 365 621.838 364.009 619.792 362.028ZM623.718 351.303H632.985C632.852 348.1 631.311 346.499 628.362 346.499C625.425 346.499 623.878 348.1 623.718 351.303Z" fill="#F69268"/>
</svg>
